<svg xmlns="http://www.w3.org/2000/svg" viewBox="0 0 200 180" width="100%" height="100%">
  <defs>
    <radialGradient id="bgGrad_btn-020" cx="50%" cy="35%" r="75%">
      <stop offset="0%" stop-color="#1E293B" />
      <stop offset="100%" stop-color="#0F172A" />
    </radialGradient>
    <linearGradient id="metalBezel_btn-020" x1="0%" y1="0%" x2="100%" y2="100%">
      <stop offset="0%" stop-color="#475569" />
      <stop offset="50%" stop-color="#1E293B" />
      <stop offset="100%" stop-color="#0F172A" />
    </linearGradient>
  </defs>
  
  <!-- Outer Bezel Container -->
  <rect x="6" y="6" width="188" height="168" rx="14" fill="url(#metalBezel_btn-020)" stroke="#334155" stroke-width="2"/>
  <rect x="12" y="12" width="176" height="156" rx="10" fill="url(#bgGrad_btn-020)" stroke="#0284C7" stroke-width="1" stroke-opacity="0.3"/>
  
  <!-- Technical Grid Sub-lines -->
  <line x1="14" y1="35" x2="186" y2="35" stroke="#334155" stroke-width="1" opacity="0.4"/>
  <line x1="14" y1="145" x2="186" y2="145" stroke="#334155" stroke-width="1" opacity="0.4"/>
  
  <!-- Code Badge & Status LED -->
  <circle cx="26" cy="24" r="4" fill="#22C55E"/>
  <text x="38" y="27" font-family="monospace" font-weight="900" font-size="10" fill="#94A3B8" letter-spacing="1">CODELCO • NDH-20</text>
  
  <!-- Main High-Contrast Vector Graphic -->
  <g transform="translate(0, 0)">
    <rect x="65" y="55" width="70" height="70" rx="8" fill="none" stroke="#0284C7" stroke-width="6"/><path d="M70,100 C80,95 90,105 100,100 C110,95 120,105 130,100 L130,120 L70,120 Z" fill="#38BDF8"/><line x1="75" y1="75" x2="125" y2="75" stroke="#0284C7" stroke-width="3" stroke-dasharray="4,4"/>
  </g>
  
  <!-- Bottom Label in SVG -->
  <text x="100" y="160" font-family="system-ui, sans-serif" font-weight="800" font-size="9" fill="#E2E8F0" text-anchor="middle" letter-spacing="0.5">NIVEL DEL DEPÓSITO HIDRÁUL</text>
</svg>